<?xml version="1.0" encoding="UTF-8" standalone="no"?><!DOCTYPE svg PUBLIC "-//W3C//DTD SVG 1.1//EN" "http://www.w3.org/Graphics/SVG/1.1/DTD/svg11.dtd"><svg width="100%" height="100%" viewBox="0 0 378 46" version="1.1" xmlns="http://www.w3.org/2000/svg" xmlns:xlink="http://www.w3.org/1999/xlink" xml:space="preserve" style="fill-rule:evenodd;clip-rule:evenodd;stroke-linecap:round;stroke-linejoin:round;stroke-miterlimit:1.5;"><g><g transform="matrix(0.753008,0,0,0.806515,-89.318,-296.373)"><path d="M167.06,375.862c-5.536,-5.46 -12.765,-8.228 -19.993,-8.228c-18.994,0 -28.452,13.995 -28.452,29.144c0,14.149 8.228,27.452 28.452,27.452c9.458,0 16.148,-3.614 21.454,-9.689l0,-22.684l-23.069,0l0,9.073l13.765,0l0,9.536c-4.23,3.383 -7.921,4.306 -12.15,4.306c-13.38,0 -18.532,-9.151 -18.532,-17.994c0,-11.073 6.997,-19.84 18.532,-19.84c4.691,0 10.073,1.923 13.688,5.383l6.305,-6.459Z" style="fill:#f2f2f2;fill-rule:nonzero;"/><path d="M219.581,423l11.073,0l-24.145,-53.828l-11.074,0l-24.145,53.828l10.996,0l4.614,-10.15l28.144,0l4.537,10.15Zm-8.612,-19.609l-19.994,0l9.997,-22.915l9.997,22.915Z" style="fill:#f2f2f2;fill-rule:nonzero;"/><path d="M281.33,423.077l10.15,0l0,-53.828l-11.611,0l-16.841,23.146l-16.84,-23.146l-11.689,0l0,53.828l10.151,0l0,-39.141l17.148,23.454l1.999,0l17.533,-23.377l0,39.064Z" style="fill:#f2f2f2;fill-rule:nonzero;"/><path d="M347.308,375.862c-5.537,-5.46 -12.765,-8.228 -19.993,-8.228c-18.994,0 -28.452,13.995 -28.452,29.144c0,14.149 8.228,27.452 28.452,27.452c9.458,0 16.148,-3.614 21.454,-9.689l0,-22.684l-23.069,0l0,9.073l13.764,0l0,9.536c-4.229,3.383 -7.92,4.306 -12.149,4.306c-13.381,0 -18.533,-9.151 -18.533,-17.994c0,-11.073 6.998,-19.84 18.533,-19.84c4.69,0 10.073,1.923 13.687,5.383l6.306,-6.459Z" style="fill:#f2f2f2;fill-rule:nonzero;"/><path d="M397.214,413.003l-30.22,0l0,-12.149l29.144,0l0,-9.459l-29.144,0l0,-12.38l30.22,0l0,-9.843l-40.294,0c0,17.917 0,35.911 0,53.828l40.294,0l0,-9.997Z" style="fill:#f2f2f2;fill-rule:nonzero;"/><path d="M452.811,422.308l-16.302,-18.379c10.227,-2.076 13.611,-9.535 13.611,-16.917c0,-9.305 -6.69,-17.763 -19.378,-17.84c-8.536,0 -17.072,-0.077 -25.607,-0.077l0,53.905l10.15,0l0,-17.994l9.766,0l15.687,17.994l12.073,0l0,-0.692Zm-22.069,-43.678c6.382,0 9.227,4.306 9.227,8.613c0,4.306 -2.768,8.612 -9.227,8.612l-15.457,0l0,-17.225l15.457,0Z" style="fill:#f2f2f2;fill-rule:nonzero;"/><path d="M533.015,423l10.151,0l0,-44.601l17.071,0l0,-9.227c-15.61,0 -28.76,0 -44.293,0l0,9.227l17.071,0l0,44.601Z" style="fill:#f2f2f2;fill-rule:nonzero;"/><path d="M620.448,369.172l-11.381,0l-16.302,41.909l-16.226,-41.909l-11.381,0l22.378,54.059l10.535,0l22.377,-54.059Z" style="fill:#f2f2f2;fill-rule:nonzero;"/></g><ellipse cx="274.792" cy="22.374" rx="14.652" ry="15.693" style="fill:#e870ff;stroke:#4de4ff;stroke-width:0.5px;"/></g></svg>